<svg xmlns="http://www.w3.org/2000/svg" xmlns:xlink="http://www.w3.org/1999/xlink" width="375" viewBox="0 0 375 375" height="375" version="1.0"><defs><g id="c"><path d="M 2.296875 -22.953125 L 13.140625 -22.953125 C 15.660156 -22.953125 17.890625 -22.476562 19.828125 -21.53125 C 21.773438 -20.59375 23.285156 -19.257812 24.359375 -17.53125 C 25.429688 -15.8125 25.96875 -13.789062 25.96875 -11.46875 C 25.96875 -9.15625 25.429688 -7.132812 24.359375 -5.40625 C 23.285156 -3.675781 21.773438 -2.34375 19.828125 -1.40625 C 17.890625 -0.46875 15.660156 0 13.140625 0 L 2.296875 0 Z M 12.890625 -5.171875 C 14.847656 -5.171875 16.421875 -5.726562 17.609375 -6.84375 C 18.804688 -7.957031 19.40625 -9.5 19.40625 -11.46875 C 19.40625 -13.4375 18.804688 -14.976562 17.609375 -16.09375 C 16.421875 -17.207031 14.847656 -17.765625 12.890625 -17.765625 L 8.78125 -17.765625 L 8.78125 -5.171875 Z M 12.890625 -5.171875"/></g><g id="d"><path d="M 20.71875 -5.015625 L 20.71875 0 L 2.296875 0 L 2.296875 -22.953125 L 20.296875 -22.953125 L 20.296875 -17.9375 L 8.71875 -17.9375 L 8.71875 -14.0625 L 18.921875 -14.0625 L 18.921875 -9.21875 L 8.71875 -9.21875 L 8.71875 -5.015625 Z M 20.71875 -5.015625"/></g><g id="e"><path d="M 2.296875 -22.953125 L 8.78125 -22.953125 L 8.78125 -5.140625 L 19.734375 -5.140625 L 19.734375 0 L 2.296875 0 Z M 2.296875 -22.953125"/></g><g id="f"><path d="M 2.296875 -22.953125 L 8.78125 -22.953125 L 8.78125 0 L 2.296875 0 Z M 2.296875 -22.953125"/></g><g id="g"><path d="M 25.5625 -22.953125 L 15.734375 0 L 9.34375 0 L -0.453125 -22.953125 L 6.5625 -22.953125 L 12.78125 -8 L 19.140625 -22.953125 Z M 25.5625 -22.953125"/></g><g id="h"><path d="M 12.328125 -6.09375 L 8.78125 -6.09375 L 8.78125 0 L 2.296875 0 L 2.296875 -22.953125 L 12.78125 -22.953125 C 14.863281 -22.953125 16.664062 -22.601562 18.1875 -21.90625 C 19.71875 -21.21875 20.898438 -20.234375 21.734375 -18.953125 C 22.566406 -17.679688 22.984375 -16.179688 22.984375 -14.453125 C 22.984375 -12.796875 22.59375 -11.347656 21.8125 -10.109375 C 21.039062 -8.878906 19.929688 -7.914062 18.484375 -7.21875 L 23.4375 0 L 16.484375 0 Z M 16.421875 -14.453125 C 16.421875 -15.523438 16.082031 -16.351562 15.40625 -16.9375 C 14.726562 -17.53125 13.722656 -17.828125 12.390625 -17.828125 L 8.78125 -17.828125 L 8.78125 -11.109375 L 12.390625 -11.109375 C 13.722656 -11.109375 14.726562 -11.394531 15.40625 -11.96875 C 16.082031 -12.550781 16.421875 -13.378906 16.421875 -14.453125 Z M 16.421875 -14.453125"/></g><g id="i"><path d="M 14.59375 -8.234375 L 14.59375 0 L 8.09375 0 L 8.09375 -8.328125 L -0.65625 -22.953125 L 6.203125 -22.953125 L 11.640625 -13.828125 L 17.078125 -22.953125 L 23.375 -22.953125 Z M 14.59375 -8.234375"/></g><g id="j"><path d="M 12.359375 -11.75 L 12.359375 0 L 9.03125 0 L 9.03125 -4.578125 L 4.5 -4.578125 L 4.5 0 L 1.171875 0 L 1.171875 -11.75 L 4.5 -11.75 L 4.5 -7.34375 L 9.03125 -7.34375 L 9.03125 -11.75 Z M 12.359375 -11.75"/></g><g id="k"><path d="M 6.59375 0.234375 C 4.851562 0.234375 3.5 -0.238281 2.53125 -1.1875 C 1.5625 -2.144531 1.078125 -3.492188 1.078125 -5.234375 L 1.078125 -11.75 L 4.40625 -11.75 L 4.40625 -5.34375 C 4.40625 -3.457031 5.148438 -2.515625 6.640625 -2.515625 C 8.117188 -2.515625 8.859375 -3.457031 8.859375 -5.34375 L 8.859375 -11.75 L 12.125 -11.75 L 12.125 -5.234375 C 12.125 -3.492188 11.640625 -2.144531 10.671875 -1.1875 C 9.703125 -0.238281 8.34375 0.234375 6.59375 0.234375 Z M 6.59375 0.234375"/></g><g id="l"><path d="M 12.359375 -11.75 L 12.359375 0 L 9.625 0 L 4.4375 -6.265625 L 4.4375 0 L 1.171875 0 L 1.171875 -11.75 L 3.90625 -11.75 L 9.109375 -5.5 L 9.109375 -11.75 Z M 12.359375 -11.75"/></g><g id="m"><path d="M 3.671875 -9.125 L 0.0625 -9.125 L 0.0625 -11.75 L 10.59375 -11.75 L 10.59375 -9.125 L 7 -9.125 L 7 0 L 3.671875 0 Z M 3.671875 -9.125"/></g><clipPath id="a"><path d="M 194 123.882812 L 239.933594 123.882812 L 239.933594 154 L 194 154 Z M 194 123.882812"/></clipPath><clipPath id="b"><path d="M 110.183594 123.882812 L 239.933594 123.882812 L 239.933594 183.132812 L 110.183594 183.132812 Z M 110.183594 123.882812"/></clipPath></defs><g clip-path="url(#a)"><path fill="#0A2635" d="M 222.863281 123.882812 L 231.378906 138.695312 L 239.890625 153.507812 L 211.082031 153.507812 L 202.570312 138.695312 L 194.054688 123.882812 Z M 222.863281 123.882812" fill-rule="evenodd"/></g><g clip-path="url(#b)"><path fill="#EA6001" d="M 172.9375 146.210938 L 124.738281 146.210938 L 130.058594 154.402344 C 132.734375 158.515625 136.933594 160.800781 141.824219 160.800781 L 172.9375 160.800781 L 177.261719 168.320312 L 177.390625 168.542969 L 139.25 168.542969 L 144.570312 176.730469 C 147.242188 180.84375 151.445312 183.132812 156.335938 183.132812 L 185.773438 183.132812 L 202.796875 153.507812 L 185.773438 123.882812 L 110.234375 123.882812 L 115.554688 132.070312 C 118.226562 136.183594 122.429688 138.472656 127.320312 138.472656 L 177.390625 138.472656 L 177.261719 138.695312 Z M 222.867188 183.132812 L 239.890625 153.507812 L 211.082031 153.507812 L 194.058594 183.132812 Z M 222.867188 183.132812" fill-rule="evenodd"/></g><g fill="#0A2635"><use x="53.764" y="229.494" xmlns:xlink="http://www.w3.org/1999/xlink" xlink:href="#c" xlink:type="simple" xlink:actuate="onLoad" xlink:show="embed"/></g><g fill="#0A2635"><use x="94.148" y="229.494" xmlns:xlink="http://www.w3.org/1999/xlink" xlink:href="#d" xlink:type="simple" xlink:actuate="onLoad" xlink:show="embed"/></g><g fill="#0A2635"><use x="129.485" y="229.494" xmlns:xlink="http://www.w3.org/1999/xlink" xlink:href="#e" xlink:type="simple" xlink:actuate="onLoad" xlink:show="embed"/></g><g fill="#0A2635"><use x="162.789" y="229.494" xmlns:xlink="http://www.w3.org/1999/xlink" xlink:href="#f" xlink:type="simple" xlink:actuate="onLoad" xlink:show="embed"/></g><g fill="#0A2635"><use x="187.21" y="229.494" xmlns:xlink="http://www.w3.org/1999/xlink" xlink:href="#g" xlink:type="simple" xlink:actuate="onLoad" xlink:show="embed"/></g><g fill="#0A2635"><use x="225.628" y="229.494" xmlns:xlink="http://www.w3.org/1999/xlink" xlink:href="#d" xlink:type="simple" xlink:actuate="onLoad" xlink:show="embed"/></g><g fill="#0A2635"><use x="260.964" y="229.494" xmlns:xlink="http://www.w3.org/1999/xlink" xlink:href="#h" xlink:type="simple" xlink:actuate="onLoad" xlink:show="embed"/></g><g fill="#0A2635"><use x="298.529" y="229.494" xmlns:xlink="http://www.w3.org/1999/xlink" xlink:href="#i" xlink:type="simple" xlink:actuate="onLoad" xlink:show="embed"/></g><g fill="#EC6B2C"><use x="144.497" y="256.485" xmlns:xlink="http://www.w3.org/1999/xlink" xlink:href="#j" xlink:type="simple" xlink:actuate="onLoad" xlink:show="embed"/></g><g fill="#EC6B2C"><use x="169.728" y="256.485" xmlns:xlink="http://www.w3.org/1999/xlink" xlink:href="#k" xlink:type="simple" xlink:actuate="onLoad" xlink:show="embed"/></g><g fill="#EC6B2C"><use x="194.624" y="256.485" xmlns:xlink="http://www.w3.org/1999/xlink" xlink:href="#l" xlink:type="simple" xlink:actuate="onLoad" xlink:show="embed"/></g><g fill="#EC6B2C"><use x="219.855" y="256.485" xmlns:xlink="http://www.w3.org/1999/xlink" xlink:href="#m" xlink:type="simple" xlink:actuate="onLoad" xlink:show="embed"/></g></svg>