<svg xmlns="http://www.w3.org/2000/svg" width="375" viewBox="0 0 375 375" height="375" version="1.0"><defs><clipPath id="a"><path d="M 242 102.273438 L 375 102.273438 L 375 188 L 242 188 Z M 242 102.273438"/></clipPath><clipPath id="b"><path d="M 0 102.273438 L 375 102.273438 L 375 272.523438 L 0 272.523438 Z M 0 102.273438"/></clipPath></defs><g clip-path="url(#a)"><path fill="#0A2635" d="M 325.660156 102.273438 L 350.269531 144.835938 L 374.871094 187.398438 L 291.609375 187.398438 L 267.007812 144.835938 L 242.398438 102.273438 Z M 325.660156 102.273438" fill-rule="evenodd"/></g><g clip-path="url(#b)"><path fill="#EA6001" d="M 181.363281 166.441406 L 42.0625 166.441406 L 57.445312 189.976562 C 65.167969 201.789062 77.3125 208.363281 91.449219 208.363281 L 181.371094 208.363281 L 193.855469 229.960938 L 194.230469 230.601562 L 84.007812 230.601562 L 99.382812 254.132812 C 107.105469 265.949219 119.253906 272.523438 133.386719 272.523438 L 218.464844 272.523438 L 243.066406 229.960938 L 267.664062 187.398438 L 243.066406 144.835938 L 218.464844 102.273438 L 0.144531 102.273438 L 15.519531 125.808594 C 23.246094 137.621094 35.390625 144.195312 49.523438 144.195312 L 194.230469 144.195312 L 193.855469 144.835938 L 181.371094 166.441406 Z M 325.667969 272.523438 L 374.871094 187.398438 L 291.609375 187.398438 L 267.007812 229.960938 L 242.410156 272.523438 Z M 325.667969 272.523438" fill-rule="evenodd"/></g></svg>